HIERARCHY
ROOT Hips
{
    OFFSET   0.000000   0.000000   0.000000
    CHANNELS 6 Xposition Yposition Zposition Zrotation Xrotation Yrotation
    JOINT Chest
    {
        OFFSET   0.000000   8.007240   0.000000
        CHANNELS 3 Zrotation Xrotation Yrotation
        JOINT Chest2
        {
            OFFSET   0.000000  22.077100   0.000000
            CHANNELS 3 Zrotation Xrotation Yrotation
            JOINT Neck
            {
                OFFSET   0.000000  23.254800   0.000000
                CHANNELS 3 Zrotation Xrotation Yrotation
                JOINT Head
                {
                    OFFSET   0.000000  14.370000   1.956600
                    CHANNELS 3 Zrotation Xrotation Yrotation
                    End Site
                    {
                        OFFSET   0.000000  19.566000   0.000000
                    }
                }
            }
            JOINT LeftCollar
            {
                OFFSET   3.911900  19.017000  -0.467064
                CHANNELS 3 Zrotation Xrotation Yrotation
                JOINT LeftShoulder
                {
                    OFFSET  10.383700   0.000000   0.000000
                    CHANNELS 3 Zrotation Xrotation Yrotation
                    JOINT LeftElbow
                    {
                        OFFSET  26.662100   0.001476   0.000517
                        CHANNELS 3 Zrotation Xrotation Yrotation
                        JOINT LeftWrist
                        {
                            OFFSET  28.869000  -0.000025  -0.000106
                            CHANNELS 3 Zrotation Xrotation Yrotation
                            JOINT LeftFinger0
                            {
                                OFFSET   2.044660  -2.323460   3.252850
                                CHANNELS 3 Zrotation Xrotation Yrotation
                                JOINT LeftFinger01
                                {
                                    OFFSET   3.088130   0.000000   0.000000
                                    CHANNELS 3 Zrotation Xrotation Yrotation
                                    JOINT LeftFinger02
                                    {
                                        OFFSET   2.639460   0.000000   0.000000
                                        CHANNELS 3 Zrotation Xrotation Yrotation
                                        End Site
                                        {
                                            OFFSET   2.582190   0.000000   0.000000
                                        }
                                    }
                                }
                            }
                            JOINT LeftFinger1
                            {
                                OFFSET   8.364480   0.000000   3.252850
                                CHANNELS 3 Zrotation Xrotation Yrotation
                                JOINT LeftFinger11
                                {
                                    OFFSET   4.646930   0.000000   0.000000
                                    CHANNELS 3 Zrotation Xrotation Yrotation
                                    JOINT LeftFinger12
                                    {
                                        OFFSET   2.323460   0.000000   0.000000
                                        CHANNELS 3 Zrotation Xrotation Yrotation
                                        End Site
                                        {
                                            OFFSET   2.273050   0.000000   0.000000
                                        }
                                    }
                                }
                            }
                            JOINT LeftFinger2
                            {
                                OFFSET   8.364490   0.000015   1.078090
                                CHANNELS 3 Zrotation Xrotation Yrotation
                                JOINT LeftFinger21
                                {
                                    OFFSET   5.111620   0.000000   0.000000
                                    CHANNELS 3 Zrotation Xrotation Yrotation
                                    JOINT LeftFinger22
                                    {
                                        OFFSET   2.788160   0.000016   0.000000
                                        CHANNELS 3 Zrotation Xrotation Yrotation
                                        End Site
                                        {
                                            OFFSET   2.727660   0.000000   0.000000
                                        }
                                    }
                                }
                            }
                            JOINT LeftFinger3
                            {
                                OFFSET   7.899780   0.000017  -1.078090
                                CHANNELS 3 Zrotation Xrotation Yrotation
                                JOINT LeftFinger31
                                {
                                    OFFSET   4.646930   0.000000   0.000000
                                    CHANNELS 3 Zrotation Xrotation Yrotation
                                    JOINT LeftFinger32
                                    {
                                        OFFSET   2.323470   0.000000   0.000000
                                        CHANNELS 3 Zrotation Xrotation Yrotation
                                        End Site
                                        {
                                            OFFSET   2.273050   0.000000   0.000000
                                        }
                                    }
                                }
                            }
                            JOINT LeftFinger4
                            {
                                OFFSET   7.435090   0.000000  -3.252850
                                CHANNELS 3 Zrotation Xrotation Yrotation
                                JOINT LeftFinger41
                                {
                                    OFFSET   3.717550   0.000000   0.000000
                                    CHANNELS 3 Zrotation Xrotation Yrotation
                                    JOINT LeftFinger42
                                    {
                                        OFFSET   1.858770   0.000000   0.000000
                                        CHANNELS 3 Zrotation Xrotation Yrotation
                                        End Site
                                        {
                                            OFFSET   1.818440   0.000000   0.000000
                                        }
                                    }
                                }
                            }
                        }
                    }
                }
            }
            JOINT RightCollar
            {
                OFFSET  -3.911900  19.017000  -0.467063
                CHANNELS 3 Zrotation Xrotation Yrotation
                JOINT RightShoulder
                {
                    OFFSET -10.383700   0.000019   0.000000
                    CHANNELS 3 Zrotation Xrotation Yrotation
                    JOINT RightElbow
                    {
                        OFFSET -26.662100   0.001175   0.000102
                        CHANNELS 3 Zrotation Xrotation Yrotation
                        JOINT RightWrist
                        {
                            OFFSET -28.869000   0.000016  -0.000079
                            CHANNELS 3 Zrotation Xrotation Yrotation
                            JOINT RightFinger0
                            {
                                OFFSET  -2.044660  -2.323490   3.252850
                                CHANNELS 3 Zrotation Xrotation Yrotation
                                JOINT RightFinger01
                                {
                                    OFFSET  -3.088140   0.000000   0.000000
                                    CHANNELS 3 Zrotation Xrotation Yrotation
                                    JOINT RightFinger02
                                    {
                                        OFFSET  -2.639460   0.000000   0.000000
                                        CHANNELS 3 Zrotation Xrotation Yrotation
                                        End Site
                                        {
                                            OFFSET  -2.582190   0.000000   0.000000
                                        }
                                    }
                                }
                            }
                            JOINT RightFinger1
                            {
                                OFFSET  -8.364480   0.000000   3.252850
                                CHANNELS 3 Zrotation Xrotation Yrotation
                                JOINT RightFinger11
                                {
                                    OFFSET  -4.646930   0.000000   0.000000
                                    CHANNELS 3 Zrotation Xrotation Yrotation
                                    JOINT RightFinger12
                                    {
                                        OFFSET  -2.323470   0.000000   0.000000
                                        CHANNELS 3 Zrotation Xrotation Yrotation
                                        End Site
                                        {
                                            OFFSET  -2.273050   0.000000   0.000000
                                        }
                                    }
                                }
                            }
                            JOINT RightFinger2
                            {
                                OFFSET  -8.364480   0.000000   1.078090
                                CHANNELS 3 Zrotation Xrotation Yrotation
                                JOINT RightFinger21
                                {
                                    OFFSET  -5.111620   0.000000   0.000000
                                    CHANNELS 3 Zrotation Xrotation Yrotation
                                    JOINT RightFinger22
                                    {
                                        OFFSET  -2.788160   0.000000   0.000000
                                        CHANNELS 3 Zrotation Xrotation Yrotation
                                        End Site
                                        {
                                            OFFSET  -2.727660   0.000000   0.000000
                                        }
                                    }
                                }
                            }
                            JOINT RightFinger3
                            {
                                OFFSET  -7.899780   0.000000  -1.078090
                                CHANNELS 3 Zrotation Xrotation Yrotation
                                JOINT RightFinger31
                                {
                                    OFFSET  -4.646930   0.000000   0.000000
                                    CHANNELS 3 Zrotation Xrotation Yrotation
                                    JOINT RightFinger32
                                    {
                                        OFFSET  -2.323470   0.000000   0.000000
                                        CHANNELS 3 Zrotation Xrotation Yrotation
                                        End Site
                                        {
                                            OFFSET  -2.273050   0.000000   0.000000
                                        }
                                    }
                                }
                            }
                            JOINT RightFinger4
                            {
                                OFFSET  -7.435090   0.000000  -3.252850
                                CHANNELS 3 Zrotation Xrotation Yrotation
                                JOINT RightFinger41
                                {
                                    OFFSET  -3.717550   0.000000   0.000000
                                    CHANNELS 3 Zrotation Xrotation Yrotation
                                    JOINT RightFinger42
                                    {
                                        OFFSET  -1.858770   0.000000   0.000000
                                        CHANNELS 3 Zrotation Xrotation Yrotation
                                        End Site
                                        {
                                            OFFSET  -1.818440   0.000000   0.000000
                                        }
                                    }
                                }
                            }
                        }
                    }
                }
            }
        }
    }
    JOINT LeftHip
    {
        OFFSET   9.783040   0.000000   0.000000
        CHANNELS 3 Zrotation Xrotation Yrotation
        JOINT LeftKnee
        {
            OFFSET   0.000032 -41.789100  -0.002222
            CHANNELS 3 Zrotation Xrotation Yrotation
            JOINT LeftAnkle
            {
                OFFSET   0.000087 -41.133200  -0.000135
                CHANNELS 3 Zrotation Xrotation Yrotation
                JOINT LeftToe
                {
                    OFFSET   0.000000  -6.358960  14.674500
                    CHANNELS 3 Zrotation Xrotation Yrotation
                    End Site
                    {
                        OFFSET   0.000000   0.000000   3.913200
                    }
                }
            }
        }
    }
    JOINT RightHip
    {
        OFFSET  -9.783040   0.000000   0.000000
        CHANNELS 3 Zrotation Xrotation Yrotation
        JOINT RightKnee
        {
            OFFSET   0.000047 -41.789100  -0.000896
            CHANNELS 3 Zrotation Xrotation Yrotation
            JOINT RightAnkle
            {
                OFFSET  -0.000117 -41.133300  -0.000248
                CHANNELS 3 Zrotation Xrotation Yrotation
                JOINT RightToe
                {
                    OFFSET   0.000000  -6.358970  14.674500
                    CHANNELS 3 Zrotation Xrotation Yrotation
                    End Site
                    {
                        OFFSET   0.000000   0.000000   3.913200
                    }
                }
            }
        }
    }
}
MOTION
Frames: 4
Frame Time:   0.016667
  0.301644  89.920000   0.118150  -0.735908  -2.297240  -1.107080   0.110037   2.476560  -0.473657   0.240918   4.952160  -0.953414   1.354880   0.118383  -0.010767   2.219860   0.239220   5.594420  -3.240350   1.155650   5.546910 -73.273300  21.949300  -1.747800  -4.732370  -7.991540 -14.554400  14.186600   4.867690   7.363170  40.125900  29.694900 -70.142000 -18.172400  -0.004590   0.012477  -4.086180  -0.003449   0.004977 -30.054200   7.752340 -13.129400 -25.320400  -0.000958  -0.006507 -17.724300   0.000000  -0.004513 -28.478100   0.583270  -1.075600 -35.845800  -0.006720  -0.003099 -23.873300   0.006503  -0.001719 -27.496300   0.564869  -1.085380 -29.196000  -0.000742  -0.002404 -19.436600   0.003821  -0.003628 -27.544200   0.565874  -1.084840 -41.334000  -0.000348  -0.002939 -27.522000   0.004414  -0.004059   9.689590   3.171260   6.050850  68.946200   9.311730  -1.819850   3.065080  -7.834690  12.060500 -14.517600 -17.637100   4.379340 -34.294600  28.196100  64.687400  33.755200   0.004144  -0.002691  11.877600   0.006412   0.001003  27.233900   1.598680   3.089650  22.317700   0.005604  -0.006605  15.622400   0.004198   0.002278  26.030500  -2.344240  -4.787330  26.128500  -0.001203  -0.000472  17.401600   0.003373   0.000715  27.934800  -3.194340  -5.997450  32.736200   0.001154  -0.001457  21.802300   0.002839  -0.001510  35.755900  -4.530610  -6.260430  54.005700   0.002092  -0.004382  35.967800  -0.000669  -0.003042  -0.321620   4.194280   2.665360   0.387925   0.008756  14.010400  -4.706320  -3.839070   5.635000  -0.000000   0.000000   0.000000   2.586370   3.933690  -9.879220   0.400324   0.923293  -8.328600  -9.911070  -0.004201  -0.473099   0.000000   0.000000   0.000000
  0.302820  89.920100   0.122026  -0.735872  -2.304080  -1.103270   0.110029   2.476500  -0.469966   0.240735   4.952030  -0.946021   1.351780   0.118398  -0.010765   2.217210   0.239220   5.594420  -3.241780   1.140460   5.540210 -73.284500  21.958800  -1.747580  -4.731280  -8.013790 -14.555200  14.192000   4.855810   7.368860  40.128000  29.700400 -70.150100 -18.189800  -0.004600   0.012489  -4.094920  -0.003452   0.004967 -30.064200   7.752370 -13.125400 -25.328400  -0.000958  -0.006502 -17.729900   0.000000  -0.004511 -28.478100   0.582004  -1.073260 -35.846500  -0.006716  -0.003087 -23.873800   0.006496  -0.001717 -27.496200   0.563647  -1.083020 -29.193500  -0.000735  -0.002397 -19.437700   0.003814  -0.003623 -27.544600   0.564650  -1.082480 -41.331400  -0.000351  -0.002928 -27.522400   0.004409  -0.004051   9.691300   3.154820   6.052900  68.943000   9.311660  -1.830730   3.073790  -7.839720  12.038400 -14.524700 -17.617800   4.375020 -34.323000  28.234800  64.697100  33.747900   0.004151  -0.002704  11.874000   0.006410   0.001008  27.212000   1.596140   3.089530  22.299700   0.005603  -0.006609  15.609800   0.004193   0.002268  26.005600  -2.336520  -4.776950  26.103000  -0.001197  -0.000477  17.384600   0.003374   0.000704  27.935700  -3.188450  -5.987540  32.709700   0.001160  -0.001467  21.784600   0.002827  -0.001517  35.739600  -4.516730  -6.245560  53.979600   0.002084  -0.004399  35.950400  -0.000679  -0.003048  -0.327308   4.108030   2.665710   0.391422   0.093953  14.009800  -4.706850  -3.841100   5.634990  -0.000000   0.000000   0.000000   2.580710   3.939050  -9.879420   0.401138   0.936140  -8.335310  -9.910850  -0.015167  -0.473302  -0.000000   0.000000   0.000000
  0.305751  89.920200   0.129136  -0.735821  -2.317110  -1.096600   0.109984   2.476440  -0.464457   0.240418   4.951910  -0.934984   1.344970   0.118509  -0.010751   2.209580   0.239222   5.594450  -3.246210   1.117850   5.533490 -73.304600  21.981400  -1.747510  -4.729060  -8.049760 -14.556600  14.200800   4.839270   7.379650  40.130300  29.710200 -70.165100 -18.224100  -0.004616   0.012507  -4.112060  -0.003462   0.004951 -30.082300   7.752510 -13.116900 -25.342700  -0.000963  -0.006493 -17.739900   0.000000  -0.004506 -28.478100   0.578134  -1.066100 -35.851600  -0.006704  -0.003058 -23.877100   0.006479  -0.001707 -27.496200   0.559907  -1.075780 -29.190900  -0.000716  -0.002379 -19.441200   0.003797  -0.003604 -27.547200   0.560937  -1.075240 -41.328800  -0.000361  -0.002901 -27.524900   0.004394  -0.004028   9.693770   3.130810   6.056870  68.935400   9.311600  -1.841600   3.085000  -7.845250  11.998600 -14.544200 -17.598700   4.359200 -34.353300  28.284200  64.700600  33.740600   0.004162  -0.002720  11.870300   0.006408   0.001015  27.190400   1.588490   3.088690  22.281800   0.005599  -0.006624  15.597200   0.004183   0.002251  25.980600  -2.328790  -4.766560  26.077500  -0.001182  -0.000487  17.367600   0.003374   0.000678  27.936700  -3.182560  -5.977100  32.683100   0.001180  -0.001496  21.766900   0.002797  -0.001537  35.724100  -4.499570  -6.225230  53.953400   0.002062  -0.004443  35.933000  -0.000707  -0.003062  -0.337051   4.021370   2.666060   0.396417   0.211281  14.008900  -4.708120  -3.846670   5.634870   0.000000   0.000000   0.000000   2.572440   3.951970  -9.879710   0.402025   0.948975  -8.346270  -9.910670  -0.031339  -0.473506  -0.000000   0.000000   0.000000
  0.310405  89.920200   0.136100  -0.735804  -2.331130  -1.090710   0.109872   2.476480  -0.461247   0.240023   4.951990  -0.928537   1.336300   0.122602  -0.010710   2.195930   0.247651   5.600070  -3.253790   1.105040   5.536230 -73.321600  22.015000  -1.749850  -4.725990  -8.076590 -14.553600  14.207400   4.832500   7.391290  40.132800  29.720400 -70.183000 -18.264200  -0.004625   0.012519  -4.132120  -0.003481   0.004942 -30.100300   7.752840 -13.104500 -25.357000  -0.000974  -0.006484 -17.749900   0.000000  -0.004496 -28.478200   0.570965  -1.052810 -35.867700  -0.006685  -0.003019 -23.887900   0.006454  -0.001682 -27.496500   0.552968  -1.062370 -29.197300  -0.000687  -0.002352 -19.446700   0.003770  -0.003566 -27.554800   0.554095  -1.061780 -41.338300  -0.000381  -0.002863 -27.532300   0.004368  -0.003986   9.695120   3.117040   6.062220  68.924600   9.317920  -1.841510   3.086580  -7.835140  11.962200 -14.584300 -17.609000   4.326340 -34.354800  28.302600  64.683700  33.755700   0.004164  -0.002724  11.877800   0.006420   0.001020  27.204500   1.571490   3.060430  22.292500   0.005590  -0.006653  15.604700   0.004176   0.002234  25.987800  -2.337740  -4.782980  26.085400  -0.001160  -0.000502  17.372900   0.003371   0.000641  27.937900  -3.182790  -5.976750  32.695900   0.001215  -0.001549  21.775400   0.002749  -0.001569  35.726400  -4.497390  -6.221330  53.956200   0.002029  -0.004513  35.934800  -0.000750  -0.003084  -0.343516   4.020900   2.663920   0.398899   0.254611  14.008400  -4.710660  -3.858110   5.634610  -0.000000   0.000000   0.000000   2.568220   3.972080  -9.878760   0.403095   0.947836  -8.353810  -9.911250  -0.038951  -0.473437  -0.000000   0.000000  -0.000000
